<svg id="Layer_1" data-name="Layer 1" xmlns="http://www.w3.org/2000/svg" viewBox="0 0 297.5 62.36"><defs><style>.cls-1{fill:#2774ae;}.cls-2{fill:#fff;}</style></defs><title>UCLA_H_2019_RGB</title><rect class="cls-1" width="134.83" height="62.36"/><path class="cls-2" d="M49,65.49A29.13,29.13,0,0,1,49,62.2l1.57-17.79h5.82L54.75,62.35C54.4,66.24,55.93,69,59.81,69s6.06-2.82,6.4-6.26l1.66-18.34h5.81l-1.6,18.11c-.66,7-5.28,12.19-12.76,12.19C53.49,74.71,49.73,70.94,49,65.49Z" transform="translate(-29.45 -28.44)"/><path class="cls-2" d="M76.05,59.46c.76-8.53,6.52-15.62,16.48-15.62a13.64,13.64,0,0,1,7.65,2.22l-.67,7A8.6,8.6,0,0,0,92,49.6c-6.19,0-9.59,4.31-10.08,9.75S84.16,69,90.17,69a11.14,11.14,0,0,0,8.3-3.66l-.65,7.25a16.77,16.77,0,0,1-8.11,2.23C79.85,74.78,75.34,67.46,76.05,59.46Z" transform="translate(-29.45 -28.44)"/><path class="cls-2" d="M104.83,44.41h5.8l-2.11,24.16h8.32c.59,0,2.57,0,3.11-.07,0,.3-.53,5.59-.53,5.59H102.19Z" transform="translate(-29.45 -28.44)"/><path class="cls-2" d="M136.58,43.05h-.4l-15.9,31h6.17l2.23-4.71h11.21l1.4,4.71h6.16Zm-1.49,12.44a6.65,6.65,0,0,0,.43-1.25h.1a8.06,8.06,0,0,0,.21,1.26c.33,1.35,2.59,8.86,2.59,8.86h-7.34S135,55.68,135.09,55.49Z" transform="translate(-29.45 -28.44)"/><path d="M200,77.83V76.29c3.8,0,5-.9,5-3.7V59.5H188.76V72.59c0,2.83,1.21,3.68,5.39,3.7v1.54H178.6V76.29c3.79,0,5-.9,5-3.7V46.3c0-2.8-1.16-3.67-5-3.7V41.06H194V42.6c-4.09,0-5.28.87-5.28,3.7V57.76H205V46.3c0-2.8-1.19-3.67-5.06-3.7V41.06H215V42.6c-3.71,0-4.84.9-4.84,3.7V72.59c0,2.8,1.18,3.68,5.06,3.7v1.54Z" transform="translate(-29.45 -28.44)"/><path d="M227.23,78.48c-6.45,0-11.71-5.91-11.71-13.16s5.26-13.16,11.71-13.16c6.81,0,11.22,5,11.27,13H221.06v0c0,7.26,3,11.57,7.95,11.57,3.89,0,6.38-2.59,8.11-4.9l1.06.91C236.11,75.73,233.33,78.48,227.23,78.48Zm-.11-24.78c-4,0-6.06,3.24-6.06,9.62v.15H233.3v-.15C233.3,56.94,231.22,53.7,227.12,53.7Z" transform="translate(-29.45 -28.44)"/><path d="M248.61,78.48c-3.71,0-7.45-1.87-7.45-6,0-5.23,8.5-7.83,13.59-9.39.85-.26,1.62-.49,2.25-.71l.1,0V57.18c0-2.57-3.07-3.48-5.69-3.48a8.94,8.94,0,0,0-5.14,1.37l-.31.19.36.07a2.58,2.58,0,0,1,2.2,2.72,3,3,0,0,1-6,0c0-3.2,4.13-5.89,9-5.89,7.42,0,10.31,2,10.31,7.29v13c0,2.66.63,3.16,1.81,3.16,1.4,0,2-2,2-3.77h1.43c-.05,3.07-1.49,6.28-5.41,6.28-2.92,0-3.76-1.73-4.22-4.72l0-.12h-.13l0,.09C256,76.86,253.12,78.48,248.61,78.48Zm8.31-14.7c-4.72,1.14-10.23,4-10.23,8.43,0,2.69,1.46,4.29,3.91,4.29,3.65,0,6.5-3.47,6.5-7.9V63.73Z" transform="translate(-29.45 -28.44)"/><path d="M267,77.83V76.29c3.1,0,4.09-.62,4.09-2.41V45.33c0-1.79-1-2.38-4.09-2.4V41.38l8.87-.31V73.88c0,1.79,1,2.39,4.1,2.41v1.54Z" transform="translate(-29.45 -28.44)"/><path d="M290.89,78.48c-4.58,0-6.53-1.92-6.53-6.43V54.35h-3.93V52.79c4.88-.44,5.62-1.82,7-8.39h1.67v8.2h7.49v1.75h-7.49V74c0,2,1,2.94,3.11,2.94.91,0,3.87-.58,3.87-6V70h1.43v.77C297.54,76.24,295.61,78.48,290.89,78.48Z" transform="translate(-29.45 -28.44)"/><path d="M318.35,77.83V60c0-5.19-2.79-6-4.46-6-3.95,0-6.71,4.88-6.71,9.25V73.88c0,1.8,1,2.39,4.2,2.41v1.54h-12.8V76.29c2.85,0,3.82-.64,3.82-2.41V45.33c0-1.77-1-2.38-3.82-2.4V41.38l8.6-.31V57.54h.15l0-.08a8.32,8.32,0,0,1,7.88-5.3c2.94,0,7.88,1.26,7.88,9.71v12c0,1.77,1,2.39,3.83,2.41v1.54Z" transform="translate(-29.45 -28.44)"/></svg>