<svg viewBox="0 0 20 18" slot="on">
  <path
    d="M19.83 2.68a2.58 2.58 0 0 0-2.3-2.5C13.91-.06 6.09-.06 2.47.18a2.58 2.58 0 0 0-2.3 2.5 115.86 115.86 0 0 0 0 12.64 2.58 2.58 0 0 0 2.3 2.5c3.62.24 11.44.24 15.06 0a2.58 2.58 0 0 0 2.3-2.5 115.86 115.86 0 0 0 0-12.64ZM8.42 12.78a3.63 3.63 0 0 1-1.51.32 4.76 4.76 0 0 1-1.63-.27A4 4 0 0 1 4 12a3.67 3.67 0 0 1-.84-1.26 4.23 4.23 0 0 1-.3-1.63 4.28 4.28 0 0 1 .3-1.64A3.53 3.53 0 0 1 4 6.26a3.89 3.89 0 0 1 1.29-.8 4.76 4.76 0 0 1 1.63-.27 4.06 4.06 0 0 1 .67.06 4.57 4.57 0 0 1 .68.18 3.59 3.59 0 0 1 .64.34 2.7 2.7 0 0 1 .55.52l-1.27 1a1.79 1.79 0 0 0-.6-.46 2 2 0 0 0-.83-.16 2 2 0 0 0-1.56.69 2.35 2.35 0 0 0-.46.77 2.78 2.78 0 0 0-.16 1 2.74 2.74 0 0 0 .16 1 2.39 2.39 0 0 0 .46.77 2.07 2.07 0 0 0 .67.5 2 2 0 0 0 .84.18 1.87 1.87 0 0 0 .9-.21 1.78 1.78 0 0 0 .65-.6l1.38 1a2.88 2.88 0 0 1-1.22 1.01Zm7.52 0a3.63 3.63 0 0 1-1.51.32 4.76 4.76 0 0 1-1.63-.27 3.89 3.89 0 0 1-1.28-.83 3.55 3.55 0 0 1-.85-1.26 4.23 4.23 0 0 1-.3-1.63 4.28 4.28 0 0 1 .3-1.64 3.43 3.43 0 0 1 .85-1.25 3.75 3.75 0 0 1 1.28-.8 4.76 4.76 0 0 1 1.63-.27 4 4 0 0 1 .67.06 4.27 4.27 0 0 1 .68.18 3.59 3.59 0 0 1 .64.34 2.46 2.46 0 0 1 .55.52l-1.27 1a1.79 1.79 0 0 0-.6-.46 2 2 0 0 0-.83-.16 2 2 0 0 0-1.56.69 2.35 2.35 0 0 0-.46.77 3 3 0 0 0-.16 1 3 3 0 0 0 .16 1 2.58 2.58 0 0 0 .46.77 2.07 2.07 0 0 0 .67.5 2 2 0 0 0 .84.18 1.87 1.87 0 0 0 .9-.21 1.78 1.78 0 0 0 .65-.6l1.38 1a2.82 2.82 0 0 1-1.21 1.05Z"
  />
</svg>
