<svg viewBox="0 0 20 18" slot="off">
  <path
    d="M19.83 2.68a2.58 2.58 0 0 0-2.3-2.5C15.72.06 12.86 0 10 0S4.28.06 2.47.18a2.58 2.58 0 0 0-2.3 2.5 115.86 115.86 0 0 0 0 12.64 2.58 2.58 0 0 0 2.3 2.5c1.81.12 4.67.18 7.53.18s5.72-.06 7.53-.18a2.58 2.58 0 0 0 2.3-2.5 115.86 115.86 0 0 0 0-12.64Zm-1.49 12.53a1.11 1.11 0 0 1-.91 1.11c-1.67.11-4.45.18-7.43.18s-5.76-.07-7.43-.18a1.11 1.11 0 0 1-.91-1.11 122.5 122.5 0 0 1 0-12.42 1.11 1.11 0 0 1 .91-1.11C4.24 1.57 7 1.5 10 1.5s5.76.07 7.43.18a1.11 1.11 0 0 1 .91 1.11 122.5 122.5 0 0 1 0 12.42ZM7.84 11a1.55 1.55 0 0 1-.76.18 1.57 1.57 0 0 1-.71-.18 1.69 1.69 0 0 1-.57-.42 2.1 2.1 0 0 1-.38-.58 2.47 2.47 0 0 1 0-1.64 2 2 0 0 1 .39-.66 1.73 1.73 0 0 1 .58-.42 1.81 1.81 0 0 1 .73-.16 1.68 1.68 0 0 1 .7.14 1.39 1.39 0 0 1 .51.39l1.08-.89a2.18 2.18 0 0 0-.47-.44A2.81 2.81 0 0 0 8.4 6a2.91 2.91 0 0 0-.58-.15 2.71 2.71 0 0 0-.56 0A4.08 4.08 0 0 0 5.88 6a3.27 3.27 0 0 0-1.09.67 3.14 3.14 0 0 0-.71 1.06 3.62 3.62 0 0 0-.26 1.39 3.57 3.57 0 0 0 .26 1.38 3 3 0 0 0 .71 1.06 3.27 3.27 0 0 0 1.09.67 3.85 3.85 0 0 0 1.38.23 3.2 3.2 0 0 0 1.28-.27 2.49 2.49 0 0 0 1-.83l-1.17-.88a1.42 1.42 0 0 1-.53.52Zm6.62 0a1.58 1.58 0 0 1-.76.18A1.54 1.54 0 0 1 13 11a1.69 1.69 0 0 1-.57-.42A2.12 2.12 0 0 1 12 10a2.29 2.29 0 0 1 .39-2.3 1.84 1.84 0 0 1 1.32-.58 1.71 1.71 0 0 1 .7.14 1.39 1.39 0 0 1 .51.39L16 6.73a2.43 2.43 0 0 0-.47-.44A3.22 3.22 0 0 0 15 6a3 3 0 0 0-.57-.15 2.87 2.87 0 0 0-.57 0A4.06 4.06 0 0 0 12.5 6a3.17 3.17 0 0 0-1.09.67 3 3 0 0 0-.72 1.06 3.62 3.62 0 0 0-.25 1.39 3.57 3.57 0 0 0 .25 1.38 2.93 2.93 0 0 0 .72 1.06 3.17 3.17 0 0 0 1.09.67 3.83 3.83 0 0 0 1.37.23 3.16 3.16 0 0 0 1.28-.27 2.45 2.45 0 0 0 1-.83L15 10.51a1.49 1.49 0 0 1-.54.49Z"
  />
</svg>
