<svg viewBox="0 0 18 18" slot="enter">
  <path
    d="M17.25 11.5a.76.76 0 0 0-.75.75v4.25h-4.25a.75.75 0 0 0 0 1.5h5a.76.76 0 0 0 .75-.75v-5a.76.76 0 0 0-.75-.75Zm0-11.5h-5a.76.76 0 0 0-.75.75.76.76 0 0 0 .75.75h4.25v4.25a.75.75 0 0 0 1.5 0v-5a.76.76 0 0 0-.75-.75ZM5.75 16.5H1.5v-4.25a.76.76 0 0 0-.75-.75.76.76 0 0 0-.75.75v5a.76.76 0 0 0 .75.75h5a.75.75 0 0 0 0-1.5Zm0-16.5h-5A.76.76 0 0 0 0 .75v5a.76.76 0 0 0 .75.75.76.76 0 0 0 .75-.75V1.5h4.25A.76.76 0 0 0 6.5.75.76.76 0 0 0 5.75 0Z"
  />
</svg>
