<svg aria-hidden="true" viewBox="0 0 18 18" slot="off">
  <path
    d="m0 1.05 4.48 4.47-.33.33a.49.49 0 0 1-.36.15H.25a.25.25 0 0 0-.25.25v5.5a.25.25 0 0 0 .25.25h3.54a.49.49 0 0 1 .36.15l4 4a.48.48 0 0 0 .36.15.5.5 0 0 0 .5-.5v-5.75l4.67 4.66a7.71 7.71 0 0 1-2.79 1.47v1.52a9.32 9.32 0 0 0 3.87-1.91L17 18l1-1L1.06 0Zm5.36 5.36L7.75 8.8V14L5 11.26a1.74 1.74 0 0 0-1.24-.51H1.25v-3.5h2.54A1.74 1.74 0 0 0 5 6.74ZM16.47 9a7.19 7.19 0 0 1-.89 3.47l1.11 1.1A8.64 8.64 0 0 0 18 9 9 9 0 0 0 10.88.3v1.52A7.52 7.52 0 0 1 16.47 9ZM9 5.88V2.21a.5.5 0 0 0-.5-.5.48.48 0 0 0-.36.15L6.56 3.44ZM12.91 9a4.28 4.28 0 0 1-.07.72l1.22 1.22A5.2 5.2 0 0 0 14.44 9a5.49 5.49 0 0 0-3.56-5.1v1.66A4 4 0 0 1 12.91 9Z"
  />
  <path style="fill: none" d="M0 0h18v18H0z" />
</svg>
