<svg aria-hidden="true" viewBox="0 0 26 24" slot="off">
  <path d="M22.832 5.68a2.58 2.58 0 0 0-2.3-2.5c-1.81-.12-4.67-.18-7.53-.18-2.86 0-5.72.06-7.53.18a2.58 2.58 0 0 0-2.3 2.5c-.23 4.21-.23 8.43 0 12.64a2.58 2.58 0 0 0 2.3 2.5c1.81.12 4.67.18 7.53.18 2.86 0 5.72-.06 7.53-.18a2.58 2.58 0 0 0 2.3-2.5c.23-4.21.23-8.43 0-12.64Zm-1.49 12.53a1.11 1.11 0 0 1-.91 1.11c-1.67.11-4.45.18-7.43.18-2.98 0-5.76-.07-7.43-.18a1.11 1.11 0 0 1-.91-1.11c-.21-4.137-.21-8.283 0-12.42a1.11 1.11 0 0 1 .91-1.11c1.67-.11 4.43-.18 7.43-.18s5.76.07 7.43.18a1.11 1.11 0 0 1 .91 1.11c.21 4.137.21 8.283 0 12.42ZM10.843 14a1.55 1.55 0 0 1-.76.18 1.57 1.57 0 0 1-.71-.18 1.69 1.69 0 0 1-.57-.42 2.099 2.099 0 0 1-.38-.58 2.47 2.47 0 0 1 0-1.64 2 2 0 0 1 .39-.66 1.73 1.73 0 0 1 .58-.42c.23-.103.479-.158.73-.16.241-.004.48.044.7.14.199.088.373.222.51.39l1.08-.89a2.179 2.179 0 0 0-.47-.44 2.81 2.81 0 0 0-.54-.32 2.91 2.91 0 0 0-.58-.15 2.71 2.71 0 0 0-.56 0 4.08 4.08 0 0 0-1.38.15 3.27 3.27 0 0 0-1.09.67 3.14 3.14 0 0 0-.71 1.06 3.62 3.62 0 0 0-.26 1.39 3.57 3.57 0 0 0 .26 1.38 3 3 0 0 0 .71 1.06c.316.293.687.52 1.09.67.443.16.91.238 1.38.23a3.2 3.2 0 0 0 1.28-.27c.401-.183.747-.47 1-.83l-1.17-.88a1.42 1.42 0 0 1-.53.52Zm6.62 0a1.58 1.58 0 0 1-.76.18 1.54 1.54 0 0 1-.7-.18 1.69 1.69 0 0 1-.57-.42 2.12 2.12 0 0 1-.43-.58 2.29 2.29 0 0 1 .39-2.3 1.84 1.84 0 0 1 1.32-.58c.241-.003.48.045.7.14.199.088.373.222.51.39l1.08-.92a2.43 2.43 0 0 0-.47-.44 3.22 3.22 0 0 0-.53-.29 2.999 2.999 0 0 0-.57-.15 2.87 2.87 0 0 0-.57 0 4.06 4.06 0 0 0-1.36.15 3.17 3.17 0 0 0-1.09.67 3 3 0 0 0-.72 1.06 3.62 3.62 0 0 0-.25 1.39 3.57 3.57 0 0 0 .25 1.38c.16.402.405.764.72 1.06a3.17 3.17 0 0 0 1.09.67c.44.16.904.237 1.37.23.441 0 .877-.092 1.28-.27a2.45 2.45 0 0 0 1-.83l-1.15-.85a1.49 1.49 0 0 1-.54.49Z"/>
</svg>
