<svg aria-hidden="true" viewBox="0 0 26 24" slot="on">
  <path d="M22.832 5.68a2.58 2.58 0 0 0-2.3-2.5c-3.62-.24-11.44-.24-15.06 0a2.58 2.58 0 0 0-2.3 2.5c-.23 4.21-.23 8.43 0 12.64a2.58 2.58 0 0 0 2.3 2.5c3.62.24 11.44.24 15.06 0a2.58 2.58 0 0 0 2.3-2.5c.23-4.21.23-8.43 0-12.64Zm-11.41 10.1a3.63 3.63 0 0 1-1.51.32 4.76 4.76 0 0 1-1.63-.27 4 4 0 0 1-1.28-.83 3.67 3.67 0 0 1-.84-1.26 4.23 4.23 0 0 1-.3-1.63 4.28 4.28 0 0 1 .3-1.64 3.53 3.53 0 0 1 .84-1.21 3.89 3.89 0 0 1 1.29-.8 4.76 4.76 0 0 1 1.63-.27 4.06 4.06 0 0 1 1.35.24c.225.091.44.205.64.34a2.7 2.7 0 0 1 .55.52l-1.27 1a1.79 1.79 0 0 0-.6-.46 2 2 0 0 0-.83-.16 2 2 0 0 0-1.56.69 2.35 2.35 0 0 0-.46.77 2.78 2.78 0 0 0-.16 1c-.009.34.046.68.16 1 .104.283.26.545.46.77.188.21.415.38.67.5a2 2 0 0 0 .84.18 1.87 1.87 0 0 0 .9-.21 1.78 1.78 0 0 0 .65-.6l1.38 1a2.88 2.88 0 0 1-1.22 1.01Zm7.52 0a3.63 3.63 0 0 1-1.51.32 4.76 4.76 0 0 1-1.63-.27 3.89 3.89 0 0 1-1.28-.83 3.55 3.55 0 0 1-.85-1.26 4.23 4.23 0 0 1-.3-1.63 4.28 4.28 0 0 1 .3-1.64 3.43 3.43 0 0 1 .85-1.25 3.75 3.75 0 0 1 1.28-.8 4.76 4.76 0 0 1 1.63-.27 4 4 0 0 1 1.35.24c.225.091.44.205.64.34.21.144.395.32.55.52l-1.27 1a1.79 1.79 0 0 0-.6-.46 2 2 0 0 0-.83-.16 2 2 0 0 0-1.56.69 2.352 2.352 0 0 0-.46.77 3.01 3.01 0 0 0-.16 1c-.003.34.05.678.16 1 .108.282.263.542.46.77.188.21.416.38.67.5a2 2 0 0 0 .84.18 1.87 1.87 0 0 0 .9-.21 1.78 1.78 0 0 0 .65-.6l1.38 1a2.82 2.82 0 0 1-1.21 1.05Z"/>
</svg>
