<svg aria-hidden="true" viewBox="0 0 20 18" slot="exit">
  <path d="M0 12.5V14C2.2056 14 4 15.7944 4 18H5.5C5.5 14.9624 3.0376 12.5 0 12.5Z" />
  <path d="M0 15.5V18H2.5C2.5 16.6193 1.3807 15.5 0 15.5Z" />
  <path d="M0 9.5V11C3.8599 11 7 14.1402 7 18H8.5C8.5 13.3055 4.6945 9.5 0 9.5Z" />
  <path d="M19 -0.000198364H1C0.4478 -0.000198364 0 0.447402 0 0.999802V7.9836C0.4243 7.9836 0.8396 8.0186 1.25 8.0698V1.2498H18.75V16.75H9.9302C9.9814 17.1604 10.0164 17.5757 10.0164 18H19C19.5523 18 20 17.5522 20 17V0.999802C20 0.447402 19.5523 -0.000198364 19 -0.000198364Z" />
  <path d="M17.5 2.4998H2.5V8.311C6.0193 9.2171 8.783 11.9807 9.689 15.5001H17.5V2.4998Z" />
</svg>
