<svg aria-hidden="true" viewBox="0 0 20 18" slot="enter">
  <path d="M0 12.5V14C2.2056 14 4 15.7944 4 18H5.5C5.5 14.9624 3.0376 12.5 0 12.5Z"/>
  <path d="M0 15.5V18H2.5C2.5 16.6193 1.3807 15.5 0 15.5Z"/>
  <path d="M0 9.5V11C3.8599 11 7 14.1402 7 18H8.5C8.5 13.3055 4.6945 9.5 0 9.5Z"/>
  <path d="M19 -0.000213623H1C0.4478 -0.000213623 0 0.447386 0 0.999786V7.98359C0.4243 7.98359 0.8396 8.01859 1.25 8.06979V1.24979H18.75V16.75H9.9302C9.9814 17.1604 10.0164 17.5757 10.0164 18H19C19.5523 18 20 17.5522 20 17V0.999786C20 0.447386 19.5523 -0.000213623 19 -0.000213623Z"/>
</svg>
