<svg aria-hidden="true" viewBox="0 0 24 24" slot="enter">
  <path d="M20.25 14.5a.76.76 0 0 0-.75.75v4.25h-4.25a.75.75 0 1 0 0 1.5h5a.76.76 0 0 0 .75-.75v-5a.76.76 0 0 0-.75-.75Zm0-11.5h-5a.76.76 0 0 0-.75.75.76.76 0 0 0 .75.75h4.25v4.25a.75.75 0 1 0 1.5 0v-5a.76.76 0 0 0-.75-.75ZM8.75 19.5H4.5v-4.25a.76.76 0 0 0-.75-.75.76.76 0 0 0-.75.75v5a.76.76 0 0 0 .75.75h5a.75.75 0 1 0 0-1.5Zm0-16.5h-5a.76.76 0 0 0-.75.75v5a.76.76 0 0 0 .75.75.76.76 0 0 0 .75-.75V4.5h4.25a.76.76 0 0 0 .75-.75.76.76 0 0 0-.75-.75Z"/>
</svg>
