<svg aria-hidden="true" viewBox="0 0 24 24" slot="off">
  <path d="m3 4.05 4.48 4.47-.33.33a.49.49 0 0 1-.36.15H3.25a.25.25 0 0 0-.25.25v5.5a.25.25 0 0 0 .25.25h3.54a.49.49 0 0 1 .36.15l4 4a.48.48 0 0 0 .36.15.5.5 0 0 0 .5-.5v-5.75l4.67 4.66a7.71 7.71 0 0 1-2.79 1.47v1.52a9.32 9.32 0 0 0 3.87-1.91L20 21l1-1L4.06 3 3 4.05Zm5.36 5.36 2.39 2.39V17L8 14.26a1.74 1.74 0 0 0-1.24-.51H4.25v-3.5h2.54A1.74 1.74 0 0 0 8 9.74l.36-.33ZM19.47 12a7.19 7.19 0 0 1-.89 3.47l1.11 1.1A8.64 8.64 0 0 0 21 12a9 9 0 0 0-7.12-8.7v1.52A7.52 7.52 0 0 1 19.47 12ZM12 8.88V5.21a.5.5 0 0 0-.5-.5.48.48 0 0 0-.36.15L9.56 6.44 12 8.88ZM15.91 12a4.284 4.284 0 0 1-.07.72l1.22 1.22a5.2 5.2 0 0 0 .38-1.94 5.49 5.49 0 0 0-3.56-5.1v1.66A4 4 0 0 1 15.91 12Z"/>
</svg>
